<?xml version="1.0" encoding="UTF-8"?>
<!DOCTYPE svg PUBLIC "-//W3C//DTD SVG 1.1//EN" "http://www.w3.org/Graphics/SVG/1.1/DTD/svg11.dtd">
<!-- Creator: CorelDRAW X8 -->
<svg xmlns="http://www.w3.org/2000/svg" xml:space="preserve" width="0.12in" height="0.12in" version="1.1" style="shape-rendering:geometricPrecision; text-rendering:geometricPrecision; image-rendering:optimizeQuality; fill-rule:evenodd; clip-rule:evenodd"
viewBox="0 0 120 120"
 xmlns:xlink="http://www.w3.org/1999/xlink">
 <defs>
  <style type="text/css">
   <![CDATA[
    .fil1 {fill:#FEFEFE}
    .fil0 {fill:#123C63}
   ]]>
  </style>
 </defs>
 <g id="Layer_x0020_1">
  <metadata id="CorelCorpID_0Corel-Layer"/>
  <circle class="fil0" cx="60" cy="60" r="60"/>
  <path class="fil1" d="M36 35l48 0c3,0 5,2 5,5l0 0c0,3 -2,5 -5,5l-48 0c-3,0 -5,-2 -5,-5l0 0c0,-3 2,-5 5,-5zm0 40l48 0c3,0 5,2 5,5l0 0c0,3 -2,5 -5,5l-48 0c-3,0 -5,-2 -5,-5l0 0c0,-3 2,-5 5,-5zm0 -20l48 0c3,0 5,2 5,5l0 0c0,3 -2,5 -5,5l-48 0c-3,0 -5,-2 -5,-5l0 0c0,-3 2,-5 5,-5z"/>
 </g>
</svg>
